<svg aria-hidden="true" style="position: absolute; width: 0; height: 0; overflow: hidden;" version="1.1" xmlns="http://www.w3.org/2000/svg" xmlns:xlink="http://www.w3.org/1999/xlink">
<defs>
<symbol id="calendar" viewBox="0 0 32 32">
<path d="M9.333 14.667h2.667v2.667h-2.667v-2.667zM9.333 20h2.667v2.667h-2.667v-2.667zM14.667 14.667h2.667v2.667h-2.667v-2.667zM14.667 20h2.667v2.667h-2.667v-2.667zM20 14.667h2.667v2.667h-2.667v-2.667zM20 20h2.667v2.667h-2.667v-2.667z"></path>
<path d="M6.667 29.333h18.667c1.471 0 2.667-1.196 2.667-2.667v-18.667c0-1.471-1.196-2.667-2.667-2.667h-2.667v-2.667h-2.667v2.667h-8v-2.667h-2.667v2.667h-2.667c-1.471 0-2.667 1.196-2.667 2.667v18.667c0 1.471 1.196 2.667 2.667 2.667zM25.333 10.667l0.001 16h-18.668v-16h18.667z"></path>
</symbol>
<symbol id="clear" viewBox="0 0 32 32">
<path d="M31.085 27.314l-11.314-11.314 11.314-11.314-3.771-3.771-11.314 11.314-11.314-11.314-3.771 3.771 11.314 11.314-11.314 11.314 3.771 3.771 11.314-11.314 11.314 11.314 3.771-3.771z"></path>
</symbol>
<symbol id="filter-rows" viewBox="0 0 35 32">
<path d="M0 0h8.727v8.727h-8.727v-8.727z"></path>
<path d="M0 11.636h8.727v8.727h-8.727v-8.727z"></path>
<path d="M0 23.273h8.727v8.727h-8.727v-8.727z"></path>
<path d="M13.091 14.545h21.818v2.909h-21.818v-2.909z"></path>
<path d="M13.091 26.182h21.818v2.909h-21.818v-2.909z"></path>
<path d="M13.091 2.909h21.818v2.909h-21.818v-2.909z"></path>
</symbol>
<symbol id="filter-thumbnail" viewBox="0 0 32 32">
<path d="M0 0h8.727v8.727h-8.727v-8.727z"></path>
<path d="M11.636 0h8.727v8.727h-8.727v-8.727z"></path>
<path d="M23.273 0h8.727v8.727h-8.727v-8.727z"></path>
<path d="M0 11.636h8.727v8.727h-8.727v-8.727z"></path>
<path d="M0 23.273h8.727v8.727h-8.727v-8.727z"></path>
<path d="M11.636 11.636h8.727v8.727h-8.727v-8.727z"></path>
<path d="M11.636 23.273h8.727v8.727h-8.727v-8.727z"></path>
<path d="M23.273 11.636h8.727v8.727h-8.727v-8.727z"></path>
<path d="M23.273 23.273h8.727v8.727h-8.727v-8.727z"></path>
</symbol>
<symbol id="comment" viewBox="0 0 32 32">
<path d="M31 4c0-1.65-1.35-3-3-3h-24c-1.65 0-3 1.35-3 3v18c0 1.65 1.35 3 3 3h21l6 6v-27z"></path>
</symbol>
<symbol id="like" viewBox="0 0 37 32">
<path d="M1.143 9.829c-0-1.23 0.245-2.448 0.721-3.583s1.173-2.163 2.051-3.025c0.878-0.862 1.919-1.54 3.062-1.995s2.365-0.678 3.595-0.655c1.455-0.008 2.896 0.294 4.226 0.885s2.519 1.458 3.489 2.544c0.97-1.085 2.159-1.952 3.489-2.544s2.77-0.893 4.226-0.885c1.23-0.023 2.452 0.2 3.595 0.655s2.184 1.133 3.062 1.995c0.878 0.862 1.575 1.89 2.051 3.025s0.721 2.352 0.721 3.583c0 9.182-10.936 16.114-17.143 21.6-6.194-5.532-17.143-12.411-17.143-21.6z"></path>
</symbol>
</defs>
</svg>
